<?xml version="1.0" encoding="utf-8"?>
<!-- Generator: Adobe Illustrator 21.0.0, SVG Export Plug-In . SVG Version: 6.00 Build 0)  -->
<svg version="1.1" id="Camada_1" xmlns="http://www.w3.org/2000/svg" xmlns:xlink="http://www.w3.org/1999/xlink" x="0px" y="0px"
	 viewBox="0 0 106.3 29.7" style="enable-background:new 0 0 106.3 29.7;" xml:space="preserve">
<style type="text/css">
	.st0{fill:#8C3243;}
</style>
<g>
	<g>
		<path class="st0" d="M17.8,3.7h-1.5h-0.4c-1,0-1.5-0.4-1.5-1.3c0-0.5,0.2-1,0.6-1.4c0.4-0.4,0.9-0.6,1.5-0.6h0.4h5.4
			c1.8,0,3.1,0.4,4.1,1.2c1,0.8,1.4,1.9,1.4,3.3c0,1.2-0.4,2.3-1.1,3.3s-1.7,1.7-2.9,2.1c1.6,0.8,2.4,2.2,2.4,4.1
			c0,1.2-0.3,2.5-1,3.6c-0.7,1.2-1.6,2.1-2.7,2.9c-1.5,1-3.7,1.4-6.7,1.4h-2l-0.2,0.4c-0.6,1.4-1.1,2.4-1.5,2.9s-0.8,1.1-1.4,1.6
			c-1.5,1.4-3.2,2-5.1,2C4.3,29.4,3,28.9,2,28c-1-0.9-1.5-2.1-1.5-3.5c0-0.9,0.2-1.8,0.7-2.6c0.4-0.8,1-1.4,1.8-1.8
			c1-0.6,2.3-0.8,4-0.8h4.7L17.8,3.7z M10.2,22.4H6.7c-1.7,0-2.6,0.6-2.6,1.9c0,0.5,0.2,0.9,0.6,1.3C5,25.9,5.5,26,6,26
			c0.8,0,1.6-0.3,2.3-1C9.1,24.4,9.7,23.5,10.2,22.4z M15.2,19.2h1.1c1.9,0,3.4-0.3,4.3-1c0.6-0.4,1.1-1,1.5-1.7
			c0.4-0.7,0.6-1.5,0.6-2.2c0-0.9-0.3-1.5-0.8-1.8s-1.4-0.5-2.7-0.5h-1.1L15.2,19.2z M19.5,8.7l0.8,0c1.2,0,2.2-0.3,2.8-0.9
			c0.3-0.3,0.6-0.7,0.8-1.2c0.2-0.5,0.3-0.9,0.3-1.3c0-0.7-0.3-1.2-1-1.5c-0.3-0.1-0.8-0.1-1.6-0.1h-0.2L19.5,8.7z"/>
		<path class="st0" d="M37.2,15.8h1.5c1.1,0,1.7,0.4,1.7,1.2c0,0.5-0.2,1-0.6,1.3c-0.4,0.3-1,0.5-1.7,0.5h-1.7
			c-0.8,0-1.3-0.3-1.6-0.9c-0.7,0.6-1.3,0.9-1.9,0.9h-1.5c-1,0-1.8-0.3-2.4-1c-0.6-0.7-0.9-1.6-0.9-2.7c0-1.7,0.6-3.2,1.8-4.6
			c1.2-1.4,2.5-2,4-2c1.1,0,2,0.4,2.5,1.2c0.4-0.7,1-1,1.8-1c0.4,0,0.7,0.1,1,0.4c0.3,0.2,0.4,0.6,0.4,0.9c0,0.2-0.1,0.5-0.2,0.9
			l-0.1,0.4L37.2,15.8z M32.3,15.9h0.3c0.7,0,1.2-0.3,1.5-0.9l0.9-2.3c0.1-0.3,0.2-0.6,0.2-0.8c0-0.2-0.1-0.4-0.4-0.6
			S34.4,11,34.1,11c-0.7,0-1.3,0.4-1.9,1.1s-0.9,1.5-0.9,2.4C31.2,15.4,31.6,15.9,32.3,15.9z"/>
		<path class="st0" d="M44.5,11.4L44,12.5c-0.4,1-0.9,1.5-1.6,1.5c-0.4,0-0.7-0.1-1-0.4c-0.3-0.2-0.4-0.5-0.4-0.9
			c0-0.2,0.1-0.6,0.3-1L42.8,8c0.4-0.9,0.9-1.4,1.6-1.4c0.7,0,1.1,0.3,1.2,0.9L45.7,8c0.1,0.2,0.1,0.3,0.2,0.4
			c0.1,0.1,0.4,0.1,0.8,0.1h3.1c1.2,0,1.8,0.4,1.8,1.2c0,1.1-0.7,1.7-2.2,1.7l-0.1,0.1c-1.4,1.4-2.1,2.4-2.1,3.1
			c0,0.7,0.4,1.1,1.2,1.1H50c1.1,0,1.7,0.4,1.7,1.2c0,0.6-0.2,1-0.6,1.3c-0.4,0.3-1,0.5-1.7,0.5h-2.6c-0.9,0-1.6-0.3-2.2-0.9
			c-0.6-0.6-0.8-1.4-0.8-2.4c0-0.6,0.2-1.2,0.5-1.8c0.3-0.6,0.8-1.3,1.6-2.2H44.5z"/>
		<path class="st0" d="M61.8,15.8h1.5c1.1,0,1.7,0.4,1.7,1.2c0,0.5-0.2,1-0.6,1.3c-0.4,0.3-1,0.5-1.7,0.5h-1.8
			c-0.7,0-1.2-0.3-1.5-0.9c-0.6,0.6-1.2,0.9-1.8,0.9h-1.7c-1,0-1.8-0.3-2.4-1c-0.6-0.7-0.9-1.6-0.9-2.7c0-1.7,0.6-3.3,1.8-4.6
			s2.5-2.1,4-2.1c1.1,0,1.9,0.4,2.6,1.2l3-7.3c0.5-1.2,1.2-1.9,2.1-1.9c0.4,0,0.7,0.1,1,0.4c0.3,0.2,0.4,0.5,0.4,0.9
			c0,0.3-0.1,0.6-0.2,0.9L67,2.9L61.8,15.8z M56.9,15.9h0.5c0.6,0,1-0.2,1.2-0.7l1-2.5c0.1-0.3,0.2-0.5,0.2-0.7
			c0-0.3-0.1-0.5-0.3-0.7c-0.2-0.2-0.5-0.3-0.8-0.3c-0.7,0-1.3,0.4-1.9,1.2s-0.9,1.6-0.9,2.5C55.8,15.5,56.1,15.9,56.9,15.9z"/>
		<path class="st0" d="M69,14.8c0,0.7,0.5,1,1.5,1h4c1.1,0,1.7,0.4,1.7,1.2c0,0.5-0.2,1-0.6,1.3c-0.4,0.3-1,0.5-1.7,0.5h-3.8
			c-1.4,0-2.5-0.3-3.2-1s-1.1-1.7-1.1-3c0-1.7,0.6-3.2,1.7-4.5s2.5-1.9,4.2-1.9c1.2,0,2.1,0.3,2.8,0.9c0.7,0.6,1.1,1.4,1.1,2.4
			c0,1.2-0.5,2.1-1.5,2.7c-0.5,0.3-1.4,0.5-2.4,0.5H69z M69.6,12.4h1.5c1,0,1.4-0.2,1.4-0.6c0-0.5-0.3-0.7-0.9-0.7
			C70.8,11,70.1,11.5,69.6,12.4z"/>
		<path class="st0" d="M80.5,15.8h1.4c1.1,0,1.7,0.4,1.7,1.2c0,0.5-0.2,1-0.6,1.3c-0.4,0.3-1,0.5-1.7,0.5H79c-0.7,0-1.2-0.2-1.6-0.5
			s-0.6-0.7-0.6-1.3c0-0.3,0.1-0.7,0.4-1.4l5.4-13.3L82.8,2c0.4-1,1.1-1.5,2-1.5c0.4,0,0.7,0.1,1,0.4s0.4,0.5,0.4,0.9
			c0,0.3-0.1,0.6-0.2,0.9L85.7,3L80.5,15.8z"/>
		<path class="st0" d="M93.6,15.8h1.5c1.1,0,1.7,0.4,1.7,1.2c0,0.5-0.2,1-0.6,1.3c-0.4,0.3-1,0.5-1.7,0.5h-1.7
			c-0.8,0-1.3-0.3-1.6-0.9c-0.7,0.6-1.3,0.9-1.9,0.9h-1.5c-1,0-1.8-0.3-2.4-1c-0.6-0.7-0.9-1.6-0.9-2.7c0-1.7,0.6-3.2,1.8-4.6
			c1.2-1.4,2.5-2,4-2c1.1,0,2,0.4,2.5,1.2c0.4-0.7,1-1,1.8-1c0.4,0,0.7,0.1,1,0.4s0.4,0.6,0.4,0.9c0,0.2-0.1,0.5-0.2,0.9l-0.1,0.4
			L93.6,15.8z M88.8,15.9h0.3c0.7,0,1.2-0.3,1.5-0.9l0.9-2.3c0.1-0.3,0.2-0.6,0.2-0.8c0-0.2-0.1-0.4-0.4-0.6
			c-0.2-0.2-0.5-0.3-0.8-0.3c-0.7,0-1.3,0.4-1.9,1.1c-0.6,0.8-0.9,1.5-0.9,2.4C87.7,15.4,88,15.9,88.8,15.9z"/>
		<path class="st0" d="M102,12.1l-0.3,0.6c-0.4,0.9-0.9,1.3-1.7,1.3c-0.4,0-0.7-0.1-1-0.4c-0.3-0.3-0.4-0.5-0.4-0.9
			c0-0.3,0.1-0.7,0.4-1.2l1.8-3.6c0.4-0.9,1-1.3,1.6-1.3c0.3,0,0.6,0.1,0.9,0.3c0.2,0.2,0.4,0.5,0.4,0.8c0,0.1,0,0.3-0.1,0.5
			c0,0.2-0.1,0.4-0.1,0.5c0,0.6,0.2,1.1,0.6,1.7l0.8,1.1c0.8,1.1,1.2,2.1,1.2,3.1c0,1.1-0.4,2.1-1.3,2.8c-0.8,0.8-1.9,1.1-3.1,1.1
			H99c-1.1,0-1.7-0.4-1.7-1.2c0-0.5,0.2-1,0.6-1.3c0.4-0.3,1-0.5,1.7-0.5h1.6c1.2,0,1.9-0.5,1.9-1.4c0-0.3-0.1-0.7-0.3-1.2L102,12.1
			z"/>
	</g>
</g>
</svg>
