<?xml version="1.0" encoding="utf-8"?>
<!-- Generator: Adobe Illustrator 21.0.0, SVG Export Plug-In . SVG Version: 6.00 Build 0)  -->
<svg version="1.1" id="OBJECTS" xmlns="http://www.w3.org/2000/svg" xmlns:xlink="http://www.w3.org/1999/xlink" x="0px" y="0px"
	 viewBox="0 0 17.6 17.7" style="enable-background:new 0 0 17.6 17.7;" xml:space="preserve">
<style type="text/css">
	.st0{display:none;}
	.st1{display:inline;}
	.st2{display:inline;clip-path:url(#SVGID_2_);fill:#7E8791;}
	.st3{fill:#FFFFFF;}
	.st4{fill:#CECECE;}
	.st5{fill:#8B0014;}
	.st6{fill:#FED86E;}
</style>
<g class="st0">
	<defs>
		<circle id="SVGID_1_" cx="8.8" cy="8.2" r="14.8"/>
	</defs>
	<use xlink:href="#SVGID_1_"  style="display:inline;overflow:visible;fill:#CECECE;"/>
	<clipPath id="SVGID_2_" class="st1">
		<use xlink:href="#SVGID_1_"  style="overflow:visible;"/>
	</clipPath>
	<path class="st2" d="M5.2,14.2c-5.1,0.6-7.1,3.6-7.1,9h21.2c0-5.4-2-8.4-7.1-9c-0.1-0.7-0.4-1.1-0.7-1.3l0-1.3c0,0,0.8-1.5,0.9-2.2
		c0.7-0.4,1.4-2.8,0.4-2.4l0.1-2.7c0,0,0.2,0,0.5,0c0.2,0-1-3.9-3.8-3.9c-1,0-2,0.2-2.8,0.8C6.4,1.3,5.1,1.8,5,3.3
		C4.9,4.7,4.8,6.9,4.8,6.9C4.1,7,4.1,8.5,5,9.5c0,0,0.2,1.4,0.9,2.2l0,1.2C5.6,13.1,5.2,13.5,5.2,14.2z"/>
</g>
<g>
	<path id="XMLID_437_" class="st3" d="M16.8,4.4v9c0,1.9-1.6,3.5-3.5,3.5h-9c-1.6,0-3-1.2-3.4-2.7c-0.1-0.3-0.1-0.5-0.1-0.8v-9
		c0-1.9,1.6-3.5,3.5-3.5h9C15.2,0.9,16.8,2.4,16.8,4.4z"/>
	<path id="XMLID_431_" class="st4" d="M13.3,17.5h-9c-1.9,0-3.6-1.3-4-3.2c-0.1-0.3-0.1-0.6-0.1-1v-9c0-2.3,1.9-4.1,4.1-4.1h9
		c2.3,0,4.1,1.9,4.1,4.1v9C17.4,15.6,15.6,17.5,13.3,17.5z M4.3,1.5c-1.6,0-2.9,1.3-2.9,2.9v9c0,0.2,0,0.4,0.1,0.7
		c0.3,1.3,1.5,2.2,2.8,2.2h9c1.6,0,2.9-1.3,2.9-2.9v-9c0-1.6-1.3-2.9-2.9-2.9H4.3z"/>
	<g id="XMLID_413_">
		<path id="XMLID_419_" class="st5" d="M16.2,10.3v2.8c0,1.8-1.5,3.2-3.2,3.2H4.7c-1.5,0-2.8-1.1-3.1-2.5l3.9-4.3l2.6,3L7,11.4
			l4.9-5.8L16.2,10.3z"/>
	</g>
	<g id="XMLID_406_">
		<path id="XMLID_412_" class="st6" d="M5.3,6.7H5.1c-1,0-1.8-0.8-1.8-1.8V4.7c0-1,0.8-1.8,1.8-1.8h0.2c1,0,1.8,0.8,1.8,1.8v0.2
			C7.1,5.9,6.3,6.7,5.3,6.7z"/>
		<path id="XMLID_407_" class="st5" d="M5.4,7.3H4.9C3.7,7.3,2.6,6.3,2.6,5V4.5c0-1.3,1.1-2.3,2.3-2.3h0.4c1.3,0,2.3,1.1,2.3,2.3V5
			C7.7,6.3,6.7,7.3,5.4,7.3z M4.9,3.5c-0.6,0-1.1,0.5-1.1,1.1V5c0,0.6,0.5,1.1,1.1,1.1h0.4C6,6.1,6.5,5.6,6.5,5V4.5
			c0-0.6-0.5-1.1-1.1-1.1H4.9z"/>
	</g>
</g>
</svg>
