<?xml version="1.0" encoding="utf-8"?>
<!-- Generator: Adobe Illustrator 21.0.0, SVG Export Plug-In . SVG Version: 6.00 Build 0)  -->
<svg version="1.1" xmlns="http://www.w3.org/2000/svg" xmlns:xlink="http://www.w3.org/1999/xlink" x="0px" y="0px"
	 viewBox="0 0 56.2 59.6" style="enable-background:new 0 0 56.2 59.6;" xml:space="preserve">
<style type="text/css">
	.st0{fill:#C6FF00;}
	.st1{fill:#F7E2E8;}
	.st2{fill:none;stroke:#263238;stroke-width:0.1122;stroke-linecap:round;stroke-linejoin:round;stroke-miterlimit:10;}
	.st3{clip-path:url(#XMLID_11_);fill:#F7E2E8;}
	.st4{opacity:0.5;clip-path:url(#XMLID_11_);fill:#FFFFFF;}
	.st5{fill:#8C3243;stroke:#263238;stroke-width:0.1495;stroke-linecap:round;stroke-linejoin:round;stroke-miterlimit:10;}
	.st6{fill:#C6FF00;stroke:#263238;stroke-width:0.1495;stroke-linecap:round;stroke-linejoin:round;stroke-miterlimit:10;}
	.st7{fill:#FFFFFF;stroke:#263238;stroke-width:0.1495;stroke-linecap:round;stroke-linejoin:round;stroke-miterlimit:10;}
	.st8{opacity:0.5;fill:#FFFFFF;}
	.st9{fill:#263238;stroke:#263238;stroke-width:0.1495;stroke-linecap:round;stroke-linejoin:round;stroke-miterlimit:10;}
	.st10{opacity:0.5;clip-path:url(#XMLID_12_);fill:#FFFFFF;}
	.st11{clip-path:url(#XMLID_13_);fill:#F7E2E8;}
	.st12{opacity:0.5;clip-path:url(#XMLID_13_);fill:#FFFFFF;}
	.st13{fill:none;stroke:#263238;stroke-width:0.1495;stroke-linecap:round;stroke-linejoin:round;stroke-miterlimit:10;}
	.st14{fill:none;stroke:#FFFFFF;stroke-width:0.1495;stroke-linecap:round;stroke-linejoin:round;stroke-miterlimit:10;}
	.st15{opacity:0.5;clip-path:url(#XMLID_14_);fill:#FFFFFF;}
	.st16{clip-path:url(#XMLID_15_);fill:#F7E2E8;}
	.st17{opacity:0.5;clip-path:url(#XMLID_15_);fill:#FFFFFF;}
	.st18{opacity:0.5;clip-path:url(#XMLID_16_);fill:#FFFFFF;}
	.st19{clip-path:url(#XMLID_17_);fill:#F7E2E8;}
	.st20{opacity:0.5;clip-path:url(#XMLID_17_);fill:#FFFFFF;}
	.st21{clip-path:url(#XMLID_18_);fill:#F7E2E8;}
	.st22{opacity:0.5;clip-path:url(#XMLID_18_);fill:#FFFFFF;}
	.st23{clip-path:url(#XMLID_19_);fill:#F7E2E8;}
	.st24{opacity:0.5;clip-path:url(#XMLID_19_);fill:#FFFFFF;}
</style>
<g id="Background_Simple">
</g>
<g id="Background">
</g>
<g id="Character_2">
</g>
<g id="Character_1">
	<g>
		<g>
			<path class="st0" d="M46.7,15.6c0,0,0.5-6.9-6.7-11.5S22.7,0.3,15.7,3.9c-6.9,3.6-5.9,11.8-8.2,17C5.2,26.2,0,27.1,0.4,34.3
				c0.4,7.2,4.9,10.6,10,11.8s9.9-0.3,14.5,0.5c4.6,0.8,11,2.3,18.4-0.6c7.4-2.9,8.8-11,7.8-17.4C50,22.1,46.7,19.8,46.7,15.6z"/>
			<path class="st1" d="M46.7,15.6c0,0,0.5-6.9-6.7-11.5S22.7,0.3,15.7,3.9c-6.9,3.6-5.9,11.8-8.2,17C5.2,26.2,0,27.1,0.4,34.3
				c0.4,7.2,4.9,10.6,10,11.8s9.9-0.3,14.5,0.5c4.6,0.8,11,2.3,18.4-0.6c7.4-2.9,8.8-11,7.8-17.4C50,22.1,46.7,19.8,46.7,15.6z"/>
		</g>
		<g>
			<g>
				<g>
					<path class="st2" d="M10.2,13.7l0.3-2H11l0.3,2c0,0.1,0,0.2,0.1,0.3l0,0c0.1,0.1,0.1,0.2,0.1,0.4v3.1c0,0.2-0.1,0.3-0.3,0.3
						h-0.9c-0.2,0-0.3-0.1-0.3-0.3v-3.1c0-0.1,0.1-0.3,0.1-0.4l0,0C10.1,13.9,10.2,13.8,10.2,13.7z"/>
					<path class="st2" d="M10.9,11.8h-0.5c-0.1,0-0.1,0-0.1-0.1l0,0c0-0.1,0-0.1,0.1-0.1h0.5C11,11.6,11,11.7,10.9,11.8L10.9,11.8
						C11,11.8,11,11.8,10.9,11.8z"/>
				</g>
				<g>
					<path class="st2" d="M13.2,13.7l0.3-2H14l0.3,2c0,0.1,0,0.2,0.1,0.3l0,0c0.1,0.1,0.1,0.2,0.1,0.4v3.1c0,0.2-0.1,0.3-0.3,0.3
						h-0.9c-0.2,0-0.3-0.1-0.3-0.3v-3.1c0-0.1,0.1-0.3,0.1-0.4l0,0C13.1,13.9,13.2,13.8,13.2,13.7z"/>
					<path class="st2" d="M13.9,11.8h-0.5c-0.1,0-0.1,0-0.1-0.1l0,0c0-0.1,0-0.1,0.1-0.1h0.5C14,11.6,14,11.7,13.9,11.8L13.9,11.8
						C14,11.8,14,11.8,13.9,11.8z"/>
				</g>
				<g>
					<path class="st2" d="M16.2,13.7l0.3-2H17l0.3,2c0,0.1,0,0.2,0.1,0.3l0,0c0.1,0.1,0.1,0.2,0.1,0.4v3.1c0,0.2-0.1,0.3-0.3,0.3
						h-0.9c-0.2,0-0.3-0.1-0.3-0.3v-3.1c0-0.1,0.1-0.3,0.1-0.4l0,0C16.1,13.9,16.2,13.8,16.2,13.7z"/>
					<path class="st2" d="M16.9,11.8h-0.5c-0.1,0-0.1,0-0.1-0.1l0,0c0-0.1,0-0.1,0.1-0.1h0.5C17,11.6,17,11.7,16.9,11.8L16.9,11.8
						C17,11.8,17,11.8,16.9,11.8z"/>
				</g>
				<g>
					<path class="st2" d="M19.2,13.7l0.3-2h0.5l0.3,2c0,0.1,0,0.2,0.1,0.3l0,0c0.1,0.1,0.1,0.2,0.1,0.4v3.1c0,0.2-0.1,0.3-0.3,0.3
						h-0.9c-0.2,0-0.3-0.1-0.3-0.3v-3.1c0-0.1,0.1-0.3,0.1-0.4l0,0C19.1,13.9,19.2,13.8,19.2,13.7z"/>
					<path class="st2" d="M19.9,11.8h-0.5c-0.1,0-0.1,0-0.1-0.1l0,0c0-0.1,0-0.1,0.1-0.1h0.5C20,11.6,20,11.7,19.9,11.8L19.9,11.8
						C20,11.8,20,11.8,19.9,11.8z"/>
				</g>
				<g>
					<path class="st2" d="M22.2,13.7l0.3-2h0.5l0.3,2c0,0.1,0,0.2,0.1,0.3l0,0c0.1,0.1,0.1,0.2,0.1,0.4v3.1c0,0.2-0.1,0.3-0.3,0.3
						h-0.9c-0.2,0-0.3-0.1-0.3-0.3v-3.1c0-0.1,0.1-0.3,0.1-0.4l0,0C22.1,13.9,22.2,13.8,22.2,13.7z"/>
					<path class="st2" d="M22.9,11.8h-0.5c-0.1,0-0.1,0-0.1-0.1l0,0c0-0.1,0-0.1,0.1-0.1h0.5C23,11.6,23,11.7,22.9,11.8L22.9,11.8
						C23,11.8,23,11.8,22.9,11.8z"/>
				</g>
				<g>
					<path class="st2" d="M25.2,13.7l0.3-2h0.5l0.3,2c0,0.1,0,0.2,0.1,0.3l0,0c0.1,0.1,0.1,0.2,0.1,0.4v3.1c0,0.2-0.1,0.3-0.3,0.3
						h-0.9c-0.2,0-0.3-0.1-0.3-0.3v-3.1c0-0.1,0.1-0.3,0.1-0.4l0,0C25.1,13.9,25.1,13.8,25.2,13.7z"/>
					<path class="st2" d="M25.9,11.8h-0.5c-0.1,0-0.1,0-0.1-0.1l0,0c0-0.1,0-0.1,0.1-0.1h0.5C26,11.6,26,11.7,25.9,11.8L25.9,11.8
						C26,11.8,26,11.8,25.9,11.8z"/>
				</g>
				<g>
					<path class="st2" d="M28.2,13.7l0.3-2h0.5l0.3,2c0,0.1,0,0.2,0.1,0.3l0,0c0.1,0.1,0.1,0.2,0.1,0.4v3.1c0,0.2-0.1,0.3-0.3,0.3
						h-0.9c-0.2,0-0.3-0.1-0.3-0.3v-3.1c0-0.1,0.1-0.3,0.1-0.4l0,0C28.1,13.9,28.1,13.8,28.2,13.7z"/>
					<path class="st2" d="M28.9,11.8h-0.5c-0.1,0-0.1,0-0.1-0.1l0,0c0-0.1,0-0.1,0.1-0.1h0.5C29,11.6,29,11.7,28.9,11.8L28.9,11.8
						C29,11.8,29,11.8,28.9,11.8z"/>
				</g>
				<g>
					<path class="st2" d="M31.2,13.7l0.3-2h0.5l0.3,2c0,0.1,0,0.2,0.1,0.3l0,0c0.1,0.1,0.1,0.2,0.1,0.4v3.1c0,0.2-0.1,0.3-0.3,0.3
						h-0.9c-0.2,0-0.3-0.1-0.3-0.3v-3.1c0-0.1,0.1-0.3,0.1-0.4l0,0C31.1,13.9,31.1,13.8,31.2,13.7z"/>
					<path class="st2" d="M31.9,11.8h-0.5c-0.1,0-0.1,0-0.1-0.1l0,0c0-0.1,0-0.1,0.1-0.1h0.5C32,11.6,32,11.7,31.9,11.8L31.9,11.8
						C32,11.8,32,11.8,31.9,11.8z"/>
				</g>
				<g>
					<path class="st2" d="M34.2,13.7l0.3-2h0.5l0.3,2c0,0.1,0,0.2,0.1,0.3l0,0c0.1,0.1,0.1,0.2,0.1,0.4v3.1c0,0.2-0.1,0.3-0.3,0.3
						h-0.9c-0.2,0-0.3-0.1-0.3-0.3v-3.1c0-0.1,0.1-0.3,0.1-0.4l0,0C34.1,13.9,34.1,13.8,34.2,13.7z"/>
					<path class="st2" d="M34.9,11.8h-0.5c-0.1,0-0.1,0-0.1-0.1l0,0c0-0.1,0-0.1,0.1-0.1h0.5C35,11.6,35,11.7,34.9,11.8L34.9,11.8
						C35,11.8,35,11.8,34.9,11.8z"/>
				</g>
				<g>
					<path class="st2" d="M37.2,13.7l0.3-2h0.5l0.3,2c0,0.1,0,0.2,0.1,0.3l0,0c0.1,0.1,0.1,0.2,0.1,0.4v3.1c0,0.2-0.1,0.3-0.3,0.3
						h-0.9c-0.2,0-0.3-0.1-0.3-0.3v-3.1c0-0.1,0.1-0.3,0.1-0.4l0,0C37.1,13.9,37.1,13.8,37.2,13.7z"/>
					<path class="st2" d="M37.9,11.8h-0.5c-0.1,0-0.1,0-0.1-0.1l0,0c0-0.1,0-0.1,0.1-0.1h0.5C38,11.6,38,11.7,37.9,11.8L37.9,11.8
						C38,11.8,38,11.8,37.9,11.8z"/>
				</g>
				<g>
					<path class="st2" d="M40.2,13.7l0.3-2h0.5l0.3,2c0,0.1,0,0.2,0.1,0.3l0,0c0.1,0.1,0.1,0.2,0.1,0.4v3.1c0,0.2-0.1,0.3-0.3,0.3
						h-0.9c-0.2,0-0.3-0.1-0.3-0.3v-3.1c0-0.1,0.1-0.3,0.1-0.4l0,0C40.1,13.9,40.1,13.8,40.2,13.7z"/>
					<path class="st2" d="M40.9,11.8h-0.5c-0.1,0-0.1,0-0.1-0.1l0,0c0-0.1,0-0.1,0.1-0.1h0.5C41,11.6,41,11.7,40.9,11.8L40.9,11.8
						C41,11.8,41,11.8,40.9,11.8z"/>
				</g>
				<g>
					<path class="st2" d="M43.2,13.7l0.3-2h0.5l0.3,2c0,0.1,0,0.2,0.1,0.3l0,0c0.1,0.1,0.1,0.2,0.1,0.4v3.1c0,0.2-0.1,0.3-0.3,0.3
						h-0.9c-0.2,0-0.3-0.1-0.3-0.3v-3.1c0-0.1,0.1-0.3,0.1-0.4l0,0C43.1,13.9,43.1,13.8,43.2,13.7z"/>
					<path class="st2" d="M43.9,11.8h-0.5c-0.1,0-0.1,0-0.1-0.1l0,0c0-0.1,0-0.1,0.1-0.1h0.5C44,11.6,44,11.7,43.9,11.8L43.9,11.8
						C44,11.8,44,11.8,43.9,11.8z"/>
				</g>
			</g>
			<g>
				<g>
					<path class="st2" d="M10.2,22.2l0.3-2H11l0.3,2c0,0.1,0,0.2,0.1,0.3l0,0c0.1,0.1,0.1,0.2,0.1,0.4v3.1c0,0.2-0.1,0.3-0.3,0.3
						h-0.9c-0.2,0-0.3-0.1-0.3-0.3v-3.1c0-0.1,0.1-0.3,0.1-0.4l0,0C10.1,22.4,10.2,22.3,10.2,22.2z"/>
					<path class="st2" d="M10.9,20.3h-0.5c-0.1,0-0.1,0-0.1-0.1l0,0c0-0.1,0-0.1,0.1-0.1h0.5C11,20.1,11,20.1,10.9,20.3L10.9,20.3
						C11,20.3,11,20.3,10.9,20.3z"/>
				</g>
				<g>
					<path class="st2" d="M13.2,22.2l0.3-2H14l0.3,2c0,0.1,0,0.2,0.1,0.3l0,0c0.1,0.1,0.1,0.2,0.1,0.4v3.1c0,0.2-0.1,0.3-0.3,0.3
						h-0.9c-0.2,0-0.3-0.1-0.3-0.3v-3.1c0-0.1,0.1-0.3,0.1-0.4l0,0C13.1,22.4,13.2,22.3,13.2,22.2z"/>
					<path class="st2" d="M13.9,20.3h-0.5c-0.1,0-0.1,0-0.1-0.1l0,0c0-0.1,0-0.1,0.1-0.1h0.5C14,20.1,14,20.1,13.9,20.3L13.9,20.3
						C14,20.3,14,20.3,13.9,20.3z"/>
				</g>
				<g>
					<path class="st2" d="M16.2,22.2l0.3-2H17l0.3,2c0,0.1,0,0.2,0.1,0.3l0,0c0.1,0.1,0.1,0.2,0.1,0.4v3.1c0,0.2-0.1,0.3-0.3,0.3
						h-0.9c-0.2,0-0.3-0.1-0.3-0.3v-3.1c0-0.1,0.1-0.3,0.1-0.4l0,0C16.1,22.4,16.2,22.3,16.2,22.2z"/>
					<path class="st2" d="M16.9,20.3h-0.5c-0.1,0-0.1,0-0.1-0.1l0,0c0-0.1,0-0.1,0.1-0.1h0.5C17,20.1,17,20.1,16.9,20.3L16.9,20.3
						C17,20.3,17,20.3,16.9,20.3z"/>
				</g>
				<g>
					<path class="st2" d="M19.2,22.2l0.3-2h0.5l0.3,2c0,0.1,0,0.2,0.1,0.3l0,0c0.1,0.1,0.1,0.2,0.1,0.4v3.1c0,0.2-0.1,0.3-0.3,0.3
						h-0.9c-0.2,0-0.3-0.1-0.3-0.3v-3.1c0-0.1,0.1-0.3,0.1-0.4l0,0C19.1,22.4,19.2,22.3,19.2,22.2z"/>
					<path class="st2" d="M19.9,20.3h-0.5c-0.1,0-0.1,0-0.1-0.1l0,0c0-0.1,0-0.1,0.1-0.1h0.5C20,20.1,20,20.1,19.9,20.3L19.9,20.3
						C20,20.3,20,20.3,19.9,20.3z"/>
				</g>
				<g>
					<path class="st2" d="M22.2,22.2l0.3-2h0.5l0.3,2c0,0.1,0,0.2,0.1,0.3l0,0c0.1,0.1,0.1,0.2,0.1,0.4v3.1c0,0.2-0.1,0.3-0.3,0.3
						h-0.9c-0.2,0-0.3-0.1-0.3-0.3v-3.1c0-0.1,0.1-0.3,0.1-0.4l0,0C22.1,22.4,22.2,22.3,22.2,22.2z"/>
					<path class="st2" d="M22.9,20.3h-0.5c-0.1,0-0.1,0-0.1-0.1l0,0c0-0.1,0-0.1,0.1-0.1h0.5C23,20.1,23,20.1,22.9,20.3L22.9,20.3
						C23,20.3,23,20.3,22.9,20.3z"/>
				</g>
				<g>
					<path class="st2" d="M25.2,22.2l0.3-2h0.5l0.3,2c0,0.1,0,0.2,0.1,0.3l0,0c0.1,0.1,0.1,0.2,0.1,0.4v3.1c0,0.2-0.1,0.3-0.3,0.3
						h-0.9c-0.2,0-0.3-0.1-0.3-0.3v-3.1c0-0.1,0.1-0.3,0.1-0.4l0,0C25.1,22.4,25.1,22.3,25.2,22.2z"/>
					<path class="st2" d="M25.9,20.3h-0.5c-0.1,0-0.1,0-0.1-0.1l0,0c0-0.1,0-0.1,0.1-0.1h0.5C26,20.1,26,20.1,25.9,20.3L25.9,20.3
						C26,20.3,26,20.3,25.9,20.3z"/>
				</g>
				<g>
					<path class="st2" d="M28.2,22.2l0.3-2h0.5l0.3,2c0,0.1,0,0.2,0.1,0.3l0,0c0.1,0.1,0.1,0.2,0.1,0.4v3.1c0,0.2-0.1,0.3-0.3,0.3
						h-0.9c-0.2,0-0.3-0.1-0.3-0.3v-3.1c0-0.1,0.1-0.3,0.1-0.4l0,0C28.1,22.4,28.1,22.3,28.2,22.2z"/>
					<path class="st2" d="M28.9,20.3h-0.5c-0.1,0-0.1,0-0.1-0.1l0,0c0-0.1,0-0.1,0.1-0.1h0.5C29,20.1,29,20.1,28.9,20.3L28.9,20.3
						C29,20.3,29,20.3,28.9,20.3z"/>
				</g>
				<g>
					<path class="st2" d="M31.2,22.2l0.3-2h0.5l0.3,2c0,0.1,0,0.2,0.1,0.3l0,0c0.1,0.1,0.1,0.2,0.1,0.4v3.1c0,0.2-0.1,0.3-0.3,0.3
						h-0.9c-0.2,0-0.3-0.1-0.3-0.3v-3.1c0-0.1,0.1-0.3,0.1-0.4l0,0C31.1,22.4,31.1,22.3,31.2,22.2z"/>
					<path class="st2" d="M31.9,20.3h-0.5c-0.1,0-0.1,0-0.1-0.1l0,0c0-0.1,0-0.1,0.1-0.1h0.5C32,20.1,32,20.1,31.9,20.3L31.9,20.3
						C32,20.3,32,20.3,31.9,20.3z"/>
				</g>
				<g>
					<path class="st2" d="M34.2,22.2l0.3-2h0.5l0.3,2c0,0.1,0,0.2,0.1,0.3l0,0c0.1,0.1,0.1,0.2,0.1,0.4v3.1c0,0.2-0.1,0.3-0.3,0.3
						h-0.9c-0.2,0-0.3-0.1-0.3-0.3v-3.1c0-0.1,0.1-0.3,0.1-0.4l0,0C34.1,22.4,34.1,22.3,34.2,22.2z"/>
					<path class="st2" d="M34.9,20.3h-0.5c-0.1,0-0.1,0-0.1-0.1l0,0c0-0.1,0-0.1,0.1-0.1h0.5C35,20.1,35,20.1,34.9,20.3L34.9,20.3
						C35,20.3,35,20.3,34.9,20.3z"/>
				</g>
				<g>
					<path class="st2" d="M37.2,22.2l0.3-2h0.5l0.3,2c0,0.1,0,0.2,0.1,0.3l0,0c0.1,0.1,0.1,0.2,0.1,0.4v3.1c0,0.2-0.1,0.3-0.3,0.3
						h-0.9c-0.2,0-0.3-0.1-0.3-0.3v-3.1c0-0.1,0.1-0.3,0.1-0.4l0,0C37.1,22.4,37.1,22.3,37.2,22.2z"/>
					<path class="st2" d="M37.9,20.3h-0.5c-0.1,0-0.1,0-0.1-0.1l0,0c0-0.1,0-0.1,0.1-0.1h0.5C38,20.1,38,20.1,37.9,20.3L37.9,20.3
						C38,20.3,38,20.3,37.9,20.3z"/>
				</g>
				<g>
					<path class="st2" d="M40.2,22.2l0.3-2h0.5l0.3,2c0,0.1,0,0.2,0.1,0.3l0,0c0.1,0.1,0.1,0.2,0.1,0.4v3.1c0,0.2-0.1,0.3-0.3,0.3
						h-0.9c-0.2,0-0.3-0.1-0.3-0.3v-3.1c0-0.1,0.1-0.3,0.1-0.4l0,0C40.1,22.4,40.1,22.3,40.2,22.2z"/>
					<path class="st2" d="M40.9,20.3h-0.5c-0.1,0-0.1,0-0.1-0.1l0,0c0-0.1,0-0.1,0.1-0.1h0.5C41,20.1,41,20.1,40.9,20.3L40.9,20.3
						C41,20.3,41,20.3,40.9,20.3z"/>
				</g>
				<g>
					<path class="st2" d="M43.2,22.2l0.3-2h0.5l0.3,2c0,0.1,0,0.2,0.1,0.3l0,0c0.1,0.1,0.1,0.2,0.1,0.4v3.1c0,0.2-0.1,0.3-0.3,0.3
						h-0.9c-0.2,0-0.3-0.1-0.3-0.3v-3.1c0-0.1,0.1-0.3,0.1-0.4l0,0C43.1,22.4,43.1,22.3,43.2,22.2z"/>
					<path class="st2" d="M43.9,20.3h-0.5c-0.1,0-0.1,0-0.1-0.1l0,0c0-0.1,0-0.1,0.1-0.1h0.5C44,20.1,44,20.1,43.9,20.3L43.9,20.3
						C44,20.3,44,20.3,43.9,20.3z"/>
				</g>
			</g>
			<line class="st2" x1="1.9" y1="26.3" x2="51.9" y2="26.3"/>
			<line class="st2" x1="1.9" y1="17.8" x2="51.9" y2="17.8"/>
			<line class="st2" x1="1.9" y1="18.5" x2="51.9" y2="18.5"/>
			<line class="st2" x1="1.9" y1="27.7" x2="51.9" y2="27.7"/>
			<line class="st2" x1="1.9" y1="28.5" x2="51.9" y2="28.5"/>
			<g>
				<ellipse class="st2" cx="49.2" cy="31.9" rx="4.4" ry="0.8"/>
				<path class="st2" d="M53.6,33.6c0,0.5-2,0.8-4.4,0.8c-2.4,0-4.4-0.4-4.4-0.8v-1"/>
				<line class="st2" x1="48.4" y1="47.8" x2="48.4" y2="34.5"/>
				<line class="st2" x1="49.7" y1="34.4" x2="49.7" y2="40.6"/>
			</g>
			<g>
				<ellipse class="st2" cx="34.5" cy="31.9" rx="4.4" ry="0.8"/>
				<path class="st2" d="M38.8,33.6c0,0.5-2,0.8-4.4,0.8c-2.4,0-4.4-0.4-4.4-0.8v-1"/>
				<line class="st2" x1="33.6" y1="47.8" x2="33.6" y2="34.5"/>
				<line class="st2" x1="34.9" y1="34.4" x2="34.9" y2="40.6"/>
			</g>
			<g>
				<ellipse class="st2" cx="19.7" cy="31.9" rx="4.4" ry="0.8"/>
				<path class="st2" d="M24.1,33.6c0,0.5-2,0.8-4.4,0.8c-2.4,0-4.4-0.4-4.4-0.8v-1"/>
				<line class="st2" x1="18.9" y1="47.8" x2="18.9" y2="34.5"/>
				<line class="st2" x1="20.1" y1="34.4" x2="20.1" y2="40.6"/>
			</g>
			<g>
				<ellipse class="st2" cx="4.9" cy="31.9" rx="4.4" ry="0.8"/>
				<path class="st2" d="M9.3,33.6c0,0.5-2,0.8-4.4,0.8c-2.4,0-4.4-0.4-4.4-0.8v-1"/>
				<line class="st2" x1="4.1" y1="47.8" x2="4.1" y2="34.5"/>
				<line class="st2" x1="5.4" y1="34.4" x2="5.4" y2="40.6"/>
			</g>
			<g>
				<ellipse class="st2" cx="11.2" cy="8.3" rx="4.4" ry="0.5"/>
				<polyline class="st2" points="6.8,8.3 10.8,3.8 10.8,1 				"/>
				<polyline class="st2" points="12.1,1.5 12.1,3.8 15.6,8.3 				"/>
			</g>
			<g>
				<ellipse class="st2" cx="29" cy="8.3" rx="4.4" ry="0.5"/>
				<polyline class="st2" points="24.6,8.3 28.6,3.8 28.6,1 				"/>
				<polyline class="st2" points="29.9,1.5 29.9,3.8 33.3,8.3 				"/>
			</g>
			<g>
				<ellipse class="st2" cx="46.7" cy="8.3" rx="4.4" ry="0.5"/>
				<polyline class="st2" points="42.3,8.3 46.3,3.8 46.3,1 				"/>
				<polyline class="st2" points="47.6,1.5 47.6,3.8 51.1,8.3 				"/>
			</g>
		</g>
		<g>
			<g>
				<g>
					<defs>
						<path id="XMLID_8_" d="M28.5,21.2c0,0-0.2,0.6-0.2,1c0,0.4,0,0.6,0.6,1.4c0.6,0.9,1.6,1.6,1.6,1.6s0.2,0.1,0.2-0.2
							c0-0.3,0.5-2.9,0.5-2.9s0.3-0.2,0.9,0c0.5,0.2,0.3,1.1,0.4,1.5c0.1,0.4-0.3,3.8-0.4,4.2c-0.1,0.4-0.5,0.3-1.6-0.4
							c-1.1-0.7-1.8-2.1-2.2-2.8c-0.3-0.7-0.5-1.3-0.9-1.8c-0.5-0.5-0.9-0.9-1-1.3c-0.2-0.4,0.9-0.6,1.3-0.5
							C28.2,21,28.5,21.2,28.5,21.2z"/>
					</defs>
					<use xlink:href="#XMLID_8_"  style="overflow:visible;fill:#FFFFFF;"/>
					<clipPath id="XMLID_11_">
						<use xlink:href="#XMLID_8_"  style="overflow:visible;"/>
					</clipPath>
					<path class="st3" d="M32,24c-0.7,1.9-1.4,2.8-2.3,2c-0.4-0.3-0.8-0.8-1.1-1.1c0.4,0.7,1.1,1.9,2,2.5c1.1,0.7,1.5,0.8,1.6,0.4
						c0.1-0.4,0.4-3,0.4-3.9C32.4,23.5,32.2,23.4,32,24z"/>
					<path class="st4" d="M32,24c-0.7,1.9-1.4,2.8-2.3,2c-0.4-0.3-0.8-0.8-1.1-1.1c0.4,0.7,1.1,1.9,2,2.5c1.1,0.7,1.5,0.8,1.6,0.4
						c0.1-0.4,0.4-3,0.4-3.9C32.4,23.5,32.3,23.4,32,24z"/>
					
						<use xlink:href="#XMLID_8_"  style="overflow:visible;fill:none;stroke:#263238;stroke-width:0.1495;stroke-linecap:round;stroke-linejoin:round;stroke-miterlimit:10;"/>
				</g>
				<g>
					<path class="st5" d="M26,18.9l0.1-2.3l0.6-0.1l0.6,2.3c0,0.1,0.1,0.2,0.1,0.3l0,0c0.1,0.1,0.2,0.3,0.2,0.4l0.3,3.6
						c0,0.2-0.1,0.4-0.4,0.4l-1.1,0.1c-0.2,0-0.4-0.1-0.4-0.4l-0.3-3.6c0-0.2,0-0.3,0.1-0.5l0,0C25.9,19.1,25.9,19,26,18.9z"/>
					<path class="st6" d="M26.6,16.6l-0.5,0c-0.1,0-0.1,0-0.1-0.1l0,0c0-0.1,0-0.1,0.1-0.1l0.5,0c0.1,0,0.1,0,0.1,0.1l0,0
						C26.8,16.5,26.7,16.6,26.6,16.6z"/>
					
						<rect x="25.8" y="19.9" transform="matrix(0.9961 -8.775004e-02 8.775004e-02 0.9961 -1.7509 2.4309)" class="st7" width="1.9" height="2.4"/>
					<polygon class="st7" points="26,18.1 27,18 26.9,17.5 26,17.6 					"/>
				</g>
				<path class="st7" d="M28.1,20.8c0,0-0.8-0.2-0.9,0.1c-0.1,0.2,0.4,0.3,0.8,0.4c0.3,0.1,0.5,0.1,0.5-0.2
					C28.6,20.8,28.1,20.8,28.1,20.8z"/>
			</g>
			<g>
				<ellipse class="st1" cx="34.5" cy="55.3" rx="5.8" ry="2.3"/>
				<ellipse class="st8" cx="34.6" cy="56.1" rx="5.8" ry="2.3"/>
			</g>
			<path class="st9" d="M35.8,51.2l0.5,1.1L36,52.4l-0.6-0.6C35.4,51.8,35.4,51.5,35.8,51.2z"/>
			<g>
				<g>
					<defs>
						<path id="XMLID_5_" d="M31.5,39.5c0,0,0.8,3.2,1.1,4.5c0.3,1.3,0.3,2.5,0.7,4.1c0.5,1.6,1,4.3,1,4.9c0,0.7-0.6,1.3-0.3,1.4
							s1.2-0.7,1.3-1.3s-0.1-1.1,0-1.4c0.1-0.3,0.5-0.3,0.4-0.7c-0.1-0.4-0.6-0.6-0.6-0.8c0-0.2-0.3-2.3-0.1-3.5
							c0.1-1.1-0.8-3.6-0.8-3.6l0.2-3.9L31.5,39.5z"/>
					</defs>
					<use xlink:href="#XMLID_5_"  style="overflow:visible;fill:#F7E2E8;"/>
					<clipPath id="XMLID_12_">
						<use xlink:href="#XMLID_5_"  style="overflow:visible;"/>
					</clipPath>
					<path class="st10" d="M31.6,39.5c0,0,0.8,3.2,1.1,4.5c0.3,1.3,0.3,2.5,0.7,4.1c0.5,1.6,1,4.3,1,4.9c0,0.7-0.6,1.3-0.3,1.4
						c0.3,0.1,1.2-0.7,1.3-1.3c0.1-0.6-0.1-1.1,0-1.4c0.1-0.3,0.5-0.3,0.4-0.7c-0.1-0.4-0.6-0.6-0.6-0.8S35,48,35.2,46.8
						c0.1-1.1-0.8-3.6-0.8-3.6l0.2-3.9L31.6,39.5z"/>
					
						<use xlink:href="#XMLID_5_"  style="overflow:visible;fill:none;stroke:#263238;stroke-width:0.1495;stroke-linecap:round;stroke-linejoin:round;stroke-miterlimit:10;"/>
				</g>
				<path class="st9" d="M35.4,51.8c0.1-0.3,0.5-0.3,0.4-0.7c-0.1-0.3-0.4-0.5-0.6-0.7c-0.3,0.6-0.8,0.9-1.2,1
					c0.1,0.8,0.2,1.4,0.3,1.7c0,0.7-0.6,1.3-0.3,1.4s1.2-0.7,1.3-1.3S35.3,52,35.4,51.8z"/>
			</g>
			<polygon class="st9" points="33.5,54.4 33.4,55.8 33.1,55.8 33,54.8 			"/>
			<g>
				<g>
					<defs>
						<path id="XMLID_6_" d="M33.4,39.9c0,0,0.5,3.4,0.2,5.9c-0.3,2.4-1.2,7.1-1.7,7.8c-0.5,0.7-1.6,2.2-1.8,2.6
							c-0.2,0.4,0.7,0.2,1.1,0.1c1-0.1,1-1.2,1.6-1.3c0.5-0.2,1-0.5,0.9-0.8c0-0.3-0.6-1.2,0.1-2.5c0.7-1.3,2.6-4.9,2.6-6.7
							c0-1.8-0.7-2.6-0.4-3.2c0.3-0.6,0.9-2.2,0.9-2.2S34.2,40.3,33.4,39.9z"/>
					</defs>
					<use xlink:href="#XMLID_6_"  style="overflow:visible;fill:#FFFFFF;"/>
					<clipPath id="XMLID_13_">
						<use xlink:href="#XMLID_6_"  style="overflow:visible;"/>
					</clipPath>
					<path class="st11" d="M33.4,39.9c0,0,0.5,3.4,0.2,5.9c-0.3,2.4-1.2,7.1-1.7,7.8c-0.5,0.7-1.6,2.2-1.8,2.6
						c-0.2,0.2,0.2,0.3,0.5,0.2c0.3-0.5,1.1-1.6,1.9-3c1-1.5,1.1-3.7,1.5-5.7c0.4-2,0.2-4.2,0.2-4.7c0-0.5,0-1.7,0-1.7s0.2,0,1.3,0
						c0.3,0,0.5,0,0.8-0.1c0.3-0.7,0.8-1.8,0.8-1.8S34.2,40.3,33.4,39.9z"/>
					<path class="st12" d="M33.5,40c0,0,0.5,3.4,0.2,5.9c-0.3,2.4-1.2,7.1-1.7,7.8c-0.5,0.7-1.6,2.2-1.8,2.6
						c-0.2,0.2,0.2,0.3,0.5,0.2c0.3-0.5,1.1-1.6,1.9-3c1-1.5,1.1-3.7,1.5-5.7c0.4-2,0.2-4.2,0.2-4.7c0-0.5,0-1.7,0-1.7s0.2,0,1.3,0
						c0.3,0,0.5,0,0.8-0.1c0.3-0.7,0.8-1.8,0.8-1.8S34.3,40.4,33.5,40z"/>
					
						<use xlink:href="#XMLID_6_"  style="overflow:visible;fill:none;stroke:#263238;stroke-width:0.1495;stroke-linecap:round;stroke-linejoin:round;stroke-miterlimit:10;"/>
				</g>
				<path class="st9" d="M32.7,55c0.5-0.2,1-0.5,0.9-0.8c0-0.2-0.2-0.6-0.2-1.1c-0.7,0.5-1.2,0.4-1.4,0.3c0,0.1-0.1,0.2-0.1,0.2
					c-0.5,0.7-1.6,2.2-1.8,2.6c-0.2,0.4,0.7,0.2,1.1,0.1C32.1,56.3,32.2,55.2,32.7,55z"/>
			</g>
			<path class="st5" d="M34,18.1c0,0-1.7-0.1-2.5,0.8c-0.8,0.9-0.8,2.2-0.7,3c0.1,0.7,1.1,1.3,1.6,1.3S34,18.1,34,18.1z"/>
			<g>
				<path class="st5" d="M31.9,22.7c0,0,0.2,1.3,0.2,2.4c0,1.1-0.1,1-0.3,2.5c-0.2,1.5-1.3,3.2-1.3,5.2s0.7,7.2,0.7,7.2
					s0.6,0.6,2.3,0.7c1.7,0.1,3.6-0.4,3.6-0.4s1.4-3.3,1.8-5.4c0.4-2.1-0.7-4.3-1-4.9c-0.2-0.6-0.7-1.8-0.7-1.9
					c0-0.1,0.4-1.6,1.2-3.1c0.8-1.5,0.9-3.2,1.3-4.4c0.4-1.2-1.1-2.6-2.1-3c-1-0.3-3.1-0.2-3.9,0.7C32.9,19.1,32.1,20.7,31.9,22.7z"
					/>
				<path class="st13" d="M35,30.6c0,0-1.5,1.7-1.7,3.4"/>
				<path class="st13" d="M33.2,35.2c0,0-0.2,2.3,0,3.4"/>
			</g>
			<g>
				<path class="st9" d="M33.8,11.8c0,0-1.5-1.8-0.6-2.5c0.9-0.7,3.5-1.3,5.2-0.7c1.7,0.6,1.6,3.2,1.4,4.8c-0.2,1.6,0.7,4,0.7,4
					s0.4,0.6-0.2,0.9c-0.6,0.3-1.1-0.1-1.8,1.1c-0.7,1.2-0.9,3.5-1.6,4.8c-0.7,1.2-2.9,1.6-3.1-0.3c-0.2-1.9,2.4-5,2.9-6.7
					c0.5-1.7-0.7-3.1-1.2-4.3s-0.8-1.7-0.8-1.7L33.8,11.8z"/>
				<path class="st14" d="M36.3,24.3c0.2-0.2,0.3-0.4,0.4-0.7"/>
				<path class="st14" d="M35.6,9.6c0,0,0.3,2.6,1.7,4.1c1.4,1.5,0.9,3.2,0.4,4.7c-0.5,1.5-3.5,4.2-2.9,5.6c0.3,0.7,0.7,0.8,1.1,0.6
					"/>
				<path class="st14" d="M39.7,15.6c0,0.5-0.1,0.9-0.2,1.2"/>
				<path class="st14" d="M36.7,9.1c0,0,0.8,1.7,1.7,2.6c0.6,0.6,1,1.8,1.2,3"/>
			</g>
			<g>
				<defs>
					<path id="XMLID_7_" d="M35.8,15.8c0,0,0.2,1.2-0.5,2.2c-0.6,1-1.5,2.4-0.9,2.4c0.6,0,2.2-2.1,2.4-3.3C37,15.9,37,15,37,15
						L35.8,15.8z"/>
				</defs>
				<use xlink:href="#XMLID_7_"  style="overflow:visible;fill:#F7E2E8;"/>
				<clipPath id="XMLID_14_">
					<use xlink:href="#XMLID_7_"  style="overflow:visible;"/>
				</clipPath>
				<path class="st15" d="M38.7,15.3c0,0,0.2,1.2-0.5,2.2c-0.6,1-1.5,2.4-0.9,2.4s2.2-2.1,2.4-3.3c0.2-1.2,0.2-2.2,0.2-2.2
					L38.7,15.3z"/>
				
					<use xlink:href="#XMLID_7_"  style="overflow:visible;fill:none;stroke:#263238;stroke-width:0.1495;stroke-linecap:round;stroke-linejoin:round;stroke-miterlimit:10;"/>
			</g>
			<g>
				<path class="st9" d="M34.3,15.8c0,0-0.2,1.1-1,2.4c-0.8,1.3-2.1,3.8-2,5.3c0.1,1.5,1.4,1.3,1.9,0.5c0.4-0.8,1-3.2,2-4.8
					c0.9-1.6,1.4-3.6,0.8-3.9C35.4,15,34.9,14.7,34.3,15.8z"/>
				<path class="st14" d="M31.6,23.1c0,0.2,0.1,0.3,0.2,0.5"/>
				<path class="st14" d="M35.4,17.4c0,0-0.1,0.5-1.5,2.2c-0.9,1.2-2,2-2.3,2.8"/>
			</g>
			<g>
				<path class="st7" d="M35,9.9c0,0-1.2,1.2-1.4,2.3s0.2,2.9,0.5,3.6c0.3,0.7,0.8,0.7,1.1,0.6c0.3-0.1,1.9-1,1.9-1.2
					C37.2,15.1,34.9,11.2,35,9.9z"/>
				<path class="st13" d="M34.5,14.3c0,0-0.5,0.1-0.6,0c-0.2-0.1,0.3-1.4,0.3-1.6c0-0.2-0.2-0.5-0.2-0.5s-0.2-0.2-0.3,0.1"/>
				<path class="st13" d="M34.5,14.9c0,0,0.4,0.2,0.9-0.2"/>
				<path class="st13" d="M34.9,12.8c0,0,0.4-0.2,0.6,0.1"/>
				<path class="st13" d="M34.7,12c0,0,0.5-0.2,0.8,0.1"/>
				<path class="st13" d="M34,12.9c0,0-0.1-0.3-0.4-0.1"/>
			</g>
			<g>
				<g>
					<defs>
						<path id="XMLID_9_" d="M40.2,22.9l1.4,2.5c0,0-1.6,2-2.2,2.7c-0.6,0.7-1,0.7-1,0.7s-0.2-0.6-0.4-1.1c-0.2-0.5-0.8-0.7-0.7-0.3
							c0.1,0.3,0.3,0.7,0.2,0.8c-0.1,0-1-0.4-1.4-0.4s-1.3,0-1.2,0.2c0.1,0.2,1,0.1,1,0.1l0.4,0.3c0,0-0.9,0-1.3,0.1
							c-0.4,0.1-0.7,0.2-0.6,0.4c0,0,0.1,0.1,0.1,0.1c0.1,0,0.2,0.2,0.2,0.3c0,0.1,0,0.1,0.1,0.1c0.2,0,0.9,0,0.9,0s-1.1,0.3-1,0.5
							c0,0.2,0.6,0,0.9,0c0.3,0,1.3,0.2,1.3,0.2s0.9,0.1,1.5-0.2c3.4-1.4,5.2-3.9,5.5-4.3c0.3-0.5-2.2-3.8-2.2-3.8L40.2,22.9z"/>
					</defs>
					<use xlink:href="#XMLID_9_"  style="overflow:visible;fill:#FFFFFF;"/>
					<clipPath id="XMLID_15_">
						<use xlink:href="#XMLID_9_"  style="overflow:visible;"/>
					</clipPath>
					<path class="st16" d="M42.7,26.3c-0.8,0.8-3.3,3.1-3.8,3c-0.1,0-0.1-0.2,0-0.5c-0.3,0.2-0.5,0.2-0.5,0.2s-0.2-0.6-0.4-1.1
						c-0.2-0.5-0.8-0.7-0.7-0.3c0.1,0.3,0.3,0.7,0.2,0.8c-0.1,0-1-0.4-1.4-0.4c-0.4,0-1.3,0-1.2,0.2c0.1,0.2,1,0.1,1,0.1l0.4,0.3
						c0,0-0.9,0-1.3,0.1c-0.4,0.1-0.7,0.2-0.6,0.4c0,0,0.1,0.1,0.1,0.1c0.1,0,0.2,0.2,0.2,0.3c0,0.1,0,0.1,0.1,0.1
						c0.2,0,0.9,0,0.9,0s-1.1,0.3-1,0.5c0,0.2,0.6,0,0.9,0c0.3,0,1.3,0.2,1.3,0.2s0.9,0.1,1.5-0.2c3.4-1.4,5.2-3.9,5.5-4.3
						c0.1-0.2-0.1-0.7-0.5-1.3C43.3,25.2,43.1,25.9,42.7,26.3z"/>
					<path class="st17" d="M42.7,26.2c-0.8,0.8-3.3,3.1-3.8,3c-0.1,0-0.1-0.2,0-0.5c-0.3,0.2-0.5,0.2-0.5,0.2s-0.2-0.6-0.4-1.1
						c-0.2-0.5-0.8-0.7-0.7-0.3c0.1,0.3,0.3,0.7,0.2,0.8c-0.1,0-1-0.4-1.4-0.4c-0.4,0-1.3,0-1.2,0.2c0.1,0.2,1,0.1,1,0.1l0.4,0.3
						c0,0-0.9,0-1.3,0.1c-0.4,0.1-0.7,0.2-0.6,0.4c0,0,0.1,0.1,0.1,0.1c0.1,0,0.2,0.2,0.2,0.3c0,0.1,0,0.1,0.1,0.1
						c0.2,0,0.9,0,0.9,0s-1.1,0.3-1,0.5c0,0.2,0.6,0,0.9,0c0.3,0,1.3,0.2,1.3,0.2s0.9,0.1,1.5-0.2c3.4-1.4,5.2-3.9,5.5-4.3
						c0.1-0.2-0.1-0.7-0.5-1.3C43.3,25.1,43.1,25.8,42.7,26.2z"/>
					
						<use xlink:href="#XMLID_9_"  style="overflow:visible;fill:none;stroke:#263238;stroke-width:0.1495;stroke-linecap:round;stroke-linejoin:round;stroke-miterlimit:10;"/>
				</g>
				<path class="st5" d="M41.6,21.9l-1.4,1l0.7,1.2l1.6-0.9C42,22.5,41.6,21.9,41.6,21.9z"/>
			</g>
			<path class="st7" d="M34.5,29.2c0,0,1-0.5,1.6-0.4"/>
			<path class="st7" d="M35.6,29.5c0,0,0.5-0.1,0.6-0.1"/>
			<path class="st5" d="M40.8,17.5c-1.3-0.2-2.5,0.6-2.8,1.8c0,0.2-0.1,0.3-0.1,0.5c-0.2,1.7,0.5,3.1,1,3.5c0.5,0.4,3.3-1,3.6-1.7
				c0.3-0.7-0.1-2.5-0.6-3.4C41.7,17.8,41.3,17.6,40.8,17.5z"/>
		</g>
		<g>
			<g>
				<ellipse class="st1" cx="21" cy="55.3" rx="5.8" ry="2.3"/>
				<ellipse class="st8" cx="21.1" cy="55.9" rx="5.8" ry="2.3"/>
			</g>
			<g>
				<g>
					<path class="st9" d="M22.4,9.5c0,0,1,1.4,1.6,3.3s0.8,4-0.2,4.9c-0.9,0.9-2,1.8-1.9,2.4s2,1.7,1.9,3.4c-0.1,1.7-1.5,2.4-3,2.6
						c-1.4,0.2-2.2-1.6-2.2-2.2s0.7-3.1,0.1-4.4c-0.6-1.3-1.3-2.4-1.9-3.3c-1.1-1.5-0.1-2,0.6-2.9c0.7-0.9-0.2-1.2,0-2.5
						S22.4,9.5,22.4,9.5z"/>
					<path class="st9" d="M22.7,9.9c0,0-3.8,2-5.1,3.9c-1.4,1.9-1.3,3-1.7,2.1c-0.4-0.8-1.4-4.6,0-5.5c1.4-1,3-2.6,5.1-2.3
						C23.1,8.5,22.7,9.9,22.7,9.9z"/>
				</g>
				<path class="st14" d="M23.3,13.1c0.1,1,0.2,2.5-0.2,3.4c-0.8,1.5-2.8,2-3,3.5c-0.2,1.4,2.4,2.6,2.4,3.9c0,1.3-1.3,2-2,1.6"/>
				<path class="st14" d="M23.1,12c0,0,0.1,0.2,0.1,0.5"/>
				<path class="st14" d="M16.1,14c-0.2,0.4-0.3,0.8-0.3,1"/>
				<path class="st14" d="M21.8,9.2c0,0-2.1,0.9-3.5,1.9c-0.7,0.5-1.3,1.3-1.7,2"/>
				<path class="st14" d="M20.7,9.2c0,0-4.7,1.5-5.1,2.6c-0.4,1.2,0.1,2.5,0.1,2.5"/>
			</g>
			<g>
				<defs>
					<path id="XMLID_4_" d="M18,39.1c0,0,0.8,2.1,0.9,2.9c0.1,0.8-1,2.6-1,4.3c0,1.7-0.1,4.3-0.1,5s0.5,1.4,0.6,1.7
						c0.1,0.3,0,1.2,0.5,1.6c0.4,0.4,1.3,0.8,1.2-0.6c-0.1-1.3-1.2-2.8-1.2-3.5c0-0.8,1.5-4,1.9-5.4s-0.2-5.4-0.3-6
						C20.4,38.2,18,39.1,18,39.1z"/>
				</defs>
				<use xlink:href="#XMLID_4_"  style="overflow:visible;fill:#F7E2E8;"/>
				<clipPath id="XMLID_16_">
					<use xlink:href="#XMLID_4_"  style="overflow:visible;"/>
				</clipPath>
				<path class="st18" d="M18,39c0,0,0.8,2.1,0.9,2.9c0.1,0.8-1,2.6-1,4.3c0,1.7-0.1,4.3-0.1,5c0,0.6,0.5,1.4,0.6,1.7
					c0.1,0.3,0,1.2,0.5,1.6c0.4,0.4,1.3,0.8,1.2-0.6c-0.1-1.3-1.2-2.8-1.2-3.5c0-0.8,1.5-4,1.9-5.4c0.4-1.4-0.2-5.4-0.3-6
					C20.5,38.2,18,39,18,39z"/>
				
					<use xlink:href="#XMLID_4_"  style="overflow:visible;fill:none;stroke:#263238;stroke-width:0.1495;stroke-linecap:round;stroke-linejoin:round;stroke-miterlimit:10;"/>
			</g>
			<path class="st9" d="M19.8,52.8c-0.1,0.3-0.3,0.6-0.7,0.4C18.5,53,18,51.5,17.8,51c0,0.1,0,0.2,0,0.2c0,0.6,0.5,1.4,0.6,1.7
				c0.1,0.3,0,1.2,0.5,1.6c0.4,0.4,1.3,0.8,1.2-0.6C20,53.5,19.9,53.2,19.8,52.8z"/>
			<path class="st9" d="M20.4,53.7l0.1,1.6l0.3,0l0.2-1.1C21,54.3,20.8,54,20.4,53.7z"/>
			<g>
				<defs>
					<path id="XMLID_3_" d="M18,40.3c0,0,1.6,2.9,1.3,3.9c-0.3,1-0.6,3.5-0.2,4.4c0.4,0.9,1.2,3,1.4,3.4c0.2,0.4,0.3,0.5,0,1
						c-0.2,0.4-0.3,0.7,0.2,1.2c0.5,0.4,0.6,1.1,1,1.5c0.4,0.4,1.7,0.9,1.9,0.6c0.2-0.3-1-1.6-1.3-2.4c-0.3-0.8-0.7-3.1-0.7-6
						c0-2.9-0.4-8.2-0.4-8.2L18,40.3z"/>
				</defs>
				<use xlink:href="#XMLID_3_"  style="overflow:visible;fill:#FFFFFF;"/>
				<clipPath id="XMLID_17_">
					<use xlink:href="#XMLID_3_"  style="overflow:visible;"/>
				</clipPath>
				<path class="st19" d="M21.4,53.6c-0.1-0.8-0.5-2-1.1-3.2c-0.7-1.2-1.3-4-0.7-5.7c0.6-1.7-0.2-3.3-0.2-3.3s0.5,0,1-0.2
					c0.2-0.1,0.6-0.2,0.9-0.3c-0.1-0.8-0.1-1.2-0.1-1.2L18,40.3c0,0,1.6,2.9,1.3,3.9c-0.3,1-0.6,3.5-0.2,4.4c0.4,0.9,1.2,3,1.4,3.4
					c0.2,0.4,0.3,0.5,0,1c-0.2,0.4-0.3,0.7,0.2,1.2c0.3,0.3,0.4,0.6,0.6,0.9C21.3,54.7,21.5,54.2,21.4,53.6z"/>
				<path class="st20" d="M21.4,53.7c-0.1-0.8-0.5-2-1.1-3.2c-0.7-1.2-1.3-4-0.7-5.7c0.6-1.7-0.2-3.3-0.2-3.3s0.5,0,1-0.2
					c0.2-0.1,0.6-0.2,0.9-0.3c-0.1-0.8-0.1-1.2-0.1-1.2L18,40.4c0,0,1.6,2.9,1.3,3.9c-0.3,1-0.6,3.5-0.2,4.4c0.4,0.9,1.2,3,1.4,3.4
					c0.2,0.4,0.3,0.5,0,1c-0.2,0.4-0.3,0.7,0.2,1.2c0.3,0.3,0.4,0.6,0.6,0.9C21.3,54.8,21.4,54.2,21.4,53.7z"/>
				
					<use xlink:href="#XMLID_3_"  style="overflow:visible;fill:none;stroke:#263238;stroke-width:0.1495;stroke-linecap:round;stroke-linejoin:round;stroke-miterlimit:10;"/>
			</g>
			<path class="st9" d="M22.2,54.8c-0.8-0.5-1.4-1.6-1.5-2c0,0.1-0.1,0.1-0.1,0.2c-0.2,0.4-0.3,0.7,0.2,1.2c0.5,0.4,0.6,1.1,1,1.5
				c0.4,0.4,1.7,0.9,1.9,0.6c0.1-0.2-0.3-0.8-0.7-1.4C22.8,55,22.6,55,22.2,54.8z"/>
			<path class="st7" d="M16.7,15.5c0,0-1.3,0.9-2.5,1.6c-1.2,0.7-1.9,1.8-1.6,2.7c0.3,0.9,0.3,0.9,0.3,0.9l2.3,6.8
				c0,0-1.9,3-1.8,5.1c0.1,2.1,1,3.8,2.1,5.4c1.1,1.6,1.4,2.7,1.4,2.7s3-0.2,3.9-0.4c1-0.2,1.4-0.5,1.4-0.5s1-7,0.2-9.5
				c-0.8-2.5-2.3-4-2.3-4s-0.4-1.2,0.7-3.8c0.4-1.1-0.6-2.5-1.1-3c-0.4-0.5-1-1.4-1-2.8S16.7,15.5,16.7,15.5z"/>
			<path class="st5" d="M15.9,15.9c0,0-0.4,0.8,0,1.5c0.3,0.8,1.1,1.5,1.8,1.5c0.8,0,1.2-0.3,1.2-1.6C18.8,16.1,17.1,14.6,15.9,15.9
				z"/>
			<g>
				<g>
					<path class="st9" d="M22.2,39.9c0,0,1-7,0.2-9.5c-0.8-2.5-2.3-4-2.3-4s0-0.1-0.1-0.3C17.7,26.8,16,27,15,27l0.2,0.6
						c0,0-1.9,3-1.8,5.1c0.1,2.1,1,3.8,2.1,5.4c1.1,1.6,1.4,2.7,1.4,2.7s3-0.2,3.9-0.4C21.7,40.2,22.2,39.9,22.2,39.9z"/>
					<path class="st14" d="M17.5,29.3c0,0,1.9,2.9,2.8,5.1"/>
					<path class="st14" d="M20.5,34.8c0,0,0.5,0.9,0.5,1.7"/>
				</g>
				<path class="st5" d="M20.8,22.6c0.3-0.8-0.2-1.9-0.7-2.5c-1.2,0.3-1.7,1.8-1.7,1.8s-1.1-1.7-2.6-1.4c-0.8,0.2-1.7,1.4-2.3,2.4
					l1.6,4.6c3.7,0.4,5-1,5-1S19.7,25.2,20.8,22.6z"/>
			</g>
			<g>
				<defs>
					<path id="XMLID_1_" d="M17.9,13.1c0,0-1.4,2.5-1.7,2.9c-0.9,1.4,1.4,3.6,2.4,2.1c0.4-0.6,0-1,0.3-1.6c0.2-0.6,0.5-1,0.5-1
						s-0.4-0.5-0.5-1.2C18.6,13.7,18,12.8,17.9,13.1z"/>
				</defs>
				<use xlink:href="#XMLID_1_"  style="overflow:visible;fill:#FFFFFF;"/>
				<clipPath id="XMLID_18_">
					<use xlink:href="#XMLID_1_"  style="overflow:visible;"/>
				</clipPath>
				<path class="st21" d="M17.8,14.7c0,0-0.1,0.8,0.2,1.4c0.2,0.5,0.5,0.7,0.7,0.8c0-0.1,0-0.3,0.1-0.4c0.2-0.6,0.5-1,0.5-1
					s-0.4-0.5-0.5-1.2c-0.2-0.7-0.7-1.6-0.9-1.2c0,0-0.3,0.5-0.7,1.2C17.4,14.5,17.8,14.7,17.8,14.7z"/>
				<path class="st22" d="M17.8,14.8c0,0-0.1,0.8,0.2,1.4c0.2,0.5,0.5,0.7,0.7,0.8c0-0.1,0-0.3,0.1-0.4c0.2-0.6,0.5-1,0.5-1
					S19,15,18.8,14.4c-0.2-0.7-0.7-1.6-0.9-1.2c0,0-0.3,0.5-0.7,1.2C17.4,14.5,17.8,14.8,17.8,14.8z"/>
				
					<use xlink:href="#XMLID_1_"  style="overflow:visible;fill:none;stroke:#263238;stroke-width:0.1495;stroke-linecap:round;stroke-linejoin:round;stroke-miterlimit:10;"/>
			</g>
			<g>
				<g>
					<path class="st5" d="M24.3,17.9l0.3-2.3h0.6l0.4,2.4c0,0.1,0.1,0.2,0.1,0.3l0,0c0.1,0.1,0.1,0.3,0.1,0.4v3.6
						c0,0.2-0.2,0.4-0.4,0.4h-1.1c-0.2,0-0.4-0.2-0.4-0.4v-3.6c0-0.2,0.1-0.3,0.2-0.5l0,0C24.2,18.1,24.2,18,24.3,17.9z"/>
					<path class="st6" d="M25.1,15.6h-0.5c-0.1,0-0.1-0.1-0.1-0.1l0,0c0-0.1,0.1-0.1,0.1-0.1h0.5c0.1,0,0.1,0.1,0.1,0.1l0,0
						C25.3,15.6,25.2,15.6,25.1,15.6z"/>
					<rect x="23.9" y="19" class="st7" width="1.9" height="2.4"/>
					<polygon class="st7" points="24.4,17.1 25.4,17.1 25.3,16.6 24.4,16.6 					"/>
				</g>
				<g>
					<defs>
						<path id="XMLID_2_" d="M13.2,17.8c0,0-1.5,0.6-1.6,1.6c-0.1,1,0.4,2.9,1.2,4.3c0.8,1.4,1.8,4.1,2.3,4.1s8.1-5.8,8.1-5.8
							s1.6-0.2,1.9-0.2c0.2,0,0.7-0.1,0.6-0.4l-0.4-0.1c0,0,0.7,0,0.7-0.2c0-0.2-0.2-0.3-0.2-0.3l-0.5,0l0.6-0.2
							c0,0,0.5-0.3,0.1-0.4c-0.4-0.1-0.8-0.2-0.8-0.2s1,0,1-0.4s-0.5-0.4-0.8-0.3c-0.3,0-1.2,0-1.4,0s-0.5-0.2-0.8,0.2
							c-0.3,0.4-0.7,1.8-0.7,1.8s-2.9,1.7-3.8,2.1C18,23.7,16,24.7,16,24.7l-2-4.8"/>
					</defs>
					<use xlink:href="#XMLID_2_"  style="overflow:visible;fill:#FFFFFF;"/>
					<clipPath id="XMLID_19_">
						<use xlink:href="#XMLID_2_"  style="overflow:visible;"/>
					</clipPath>
					<path class="st23" d="M25.7,21.3c-0.3,0-0.8,0-1.5,0.2c-0.7,0.2-1.3,0.1-1.3,0.1s-6.8,5-7.5,5c-0.7,0-1.1-1.4-2.2-3.5
						c-0.8-1.4-1.2-2.4-1.5-3c0.1,1,0.6,2.6,1.2,3.7c0.8,1.4,1.8,4.1,2.3,4.1c0.5,0,8.1-5.8,8.1-5.8s1.6-0.2,1.9-0.2
						C25.3,21.7,25.8,21.6,25.7,21.3z"/>
					<path class="st24" d="M25.7,21c-0.3,0-0.8,0-1.5,0.2c-0.7,0.2-1.3,0.1-1.3,0.1s-6.8,5-7.5,5c-0.7,0-1.1-1.4-2.2-3.5
						c-0.8-1.4-1.2-2.4-1.5-3c0.1,1,0.6,2.6,1.2,3.7c0.8,1.4,1.8,4.1,2.3,4.1c0.5,0,8.1-5.8,8.1-5.8s1.6-0.2,1.9-0.2
						C25.4,21.5,25.8,21.3,25.7,21z"/>
					
						<use xlink:href="#XMLID_2_"  style="overflow:visible;fill:none;stroke:#263238;stroke-width:0.1495;stroke-linecap:round;stroke-linejoin:round;stroke-miterlimit:10;"/>
				</g>
			</g>
			<g>
				<path class="st7" d="M21.3,10.6c0,0,0.6,0.3,0.8,1.1c0.1,0.8,0.2,1.6,0.1,2.1c-0.1,0.5-0.6,1.4-0.8,1.8
					c-0.2,0.4-0.2,0.8-0.7,0.8c-0.5,0-1.4-0.3-2-0.8c-0.6-0.5-0.6-1.6-0.6-1.6s-0.7-0.6-0.6-1c0.1-0.4,0.5-0.7,0.8-0.2
					c0.2,0.5,0.2,0.7,0.4,0.2c0.2-0.5-0.4-0.4,0.2-1.2C19.6,11.1,21.3,10.6,21.3,10.6z"/>
				<path class="st13" d="M22.1,12.8c0,0-0.4,0.3-0.3,0.6c0.1,0.3,0.4,0.9,0.2,1.1c-0.2,0.2-0.8,0-0.8,0"/>
				<path class="st13" d="M20.2,12.9c0,0,0.5-0.2,0.9,0.1"/>
				<path class="st13" d="M20.2,12.3c0,0,0.3-0.5,1-0.5"/>
				<path class="st13" d="M21.1,15c0,0-0.5,0-0.7-0.5"/>
			</g>
		</g>
	</g>
</g>
</svg>
